<?xml version="1.0" standalone="no"?><!DOCTYPE svg PUBLIC "-//W3C//DTD SVG 1.1//EN" "http://www.w3.org/Graphics/SVG/1.1/DTD/svg11.dtd"><svg class="icon" width="200px" height="200.00px" viewBox="0 0 1024 1024" version="1.1" xmlns="http://www.w3.org/2000/svg"><path fill="#1296db" d="M756.352 196.266667l-80.341333 0c-8.149333-48.341333-50.048-85.333333-100.650667-85.333333L565.76 110.933333C569.514667 103.125333 571.733333 94.506667 571.733333 85.333333c0-32.896-26.837333-59.733333-59.733333-59.733333S452.266667 52.437333 452.266667 85.333333c0 9.173333 2.261333 17.792 6.016 25.6l-9.6 0c-50.645333 0-92.501333 36.992-100.650667 85.333333L267.605333 196.266667c-67.157333 0-121.770667 54.656-121.770667 121.813333l0 558.506667c0 67.157333 54.613333 121.813333 121.770667 121.813333l488.704 0c67.157333 0 121.813333-54.656 121.813333-121.813333L878.122667 318.08C878.165333 250.922667 823.509333 196.266667 756.352 196.266667zM486.4 85.333333c0-14.122667 11.477333-25.6 25.6-25.6s25.6 11.477333 25.6 25.6S526.122667 110.933333 512 110.933333 486.4 99.456 486.4 85.333333zM448.682667 145.066667l126.677333 0c37.632 0 68.266667 30.634667 68.266667 68.266667s-30.634667 68.266667-68.266667 68.266667l-126.677333 0c-37.632 0-68.266667-30.634667-68.266667-68.266667S411.050667 145.066667 448.682667 145.066667zM843.989333 876.586667c0 48.341333-39.338667 87.68-87.68 87.68L267.605333 964.266667c-48.341333 0-87.637333-39.338667-87.637333-87.68L179.968 318.08C180.010667 269.738667 219.306667 230.4 267.605333 230.4l80.384 0c8.149333 48.341333 50.048 85.333333 100.650667 85.333333l126.677333 0c50.645333 0 92.501333-36.992 100.650667-85.333333l80.341333 0c48.341333 0 87.68 39.338667 87.68 87.68L843.989333 876.586667zM768 408.234667 256 408.234667c-9.429333 0-17.066667 7.68-17.066667 17.066667s7.68 17.066667 17.066667 17.066667l512 0c9.429333 0 17.066667-7.68 17.066667-17.066667S777.429333 408.234667 768 408.234667zM768 537.6 256 537.6c-9.429333 0-17.066667 7.68-17.066667 17.066667s7.68 17.066667 17.066667 17.066667l512 0c9.429333 0 17.066667-7.68 17.066667-17.066667S777.429333 537.6 768 537.6zM768 666.922667 256 666.922667c-9.429333 0-17.066667 7.68-17.066667 17.066667s7.68 17.066667 17.066667 17.066667l512 0c9.429333 0 17.066667-7.68 17.066667-17.066667S777.429333 666.922667 768 666.922667zM768 793.6 256 793.6c-9.429333 0-17.066667 7.68-17.066667 17.066667s7.68 17.066667 17.066667 17.066667l512 0c9.429333 0 17.066667-7.68 17.066667-17.066667S777.429333 793.6 768 793.6z" /></svg>