<?xml version="1.0" standalone="no"?><!DOCTYPE svg PUBLIC "-//W3C//DTD SVG 1.1//EN" "http://www.w3.org/Graphics/SVG/1.1/DTD/svg11.dtd"><svg class="icon" width="200px" height="200.00px" viewBox="0 0 1024 1024" version="1.1" xmlns="http://www.w3.org/2000/svg"><path fill="#1296db" d="M664.132267 0H110.933333v1024h802.133334V248.9344L664.132267 0z m10.001066 58.2656L854.801067 238.933333H674.133333V58.2656zM145.066667 989.866667V34.133333h494.933333v238.933334h238.933333v716.8h-733.866666z"  /><path fill="#1296db" d="M725.333333 358.4h-273.066666a17.066667 17.066667 0 1 0 0 34.133333h273.066666a17.066667 17.066667 0 1 0 0-34.133333zM390.4 310.9376l-73.403733 58.7264-23.330134-23.330133a17.0496 17.0496 0 1 0-24.132266 24.132266l34.133333 34.133334a17.032533 17.032533 0 0 0 22.715733 1.262933l85.333334-68.266667a17.066667 17.066667 0 0 0-21.316267-26.658133zM725.333333 546.133333h-273.066666a17.066667 17.066667 0 1 0 0 34.133334h273.066666a17.066667 17.066667 0 1 0 0-34.133334zM390.4 498.670933l-73.403733 58.7264-23.330134-23.330133a17.0496 17.0496 0 1 0-24.132266 24.132267l34.133333 34.133333a17.032533 17.032533 0 0 0 22.715733 1.262933l85.333334-68.266666a17.066667 17.066667 0 0 0-21.316267-26.658134zM725.333333 733.866667h-273.066666a17.066667 17.066667 0 1 0 0 34.133333h273.066666a17.066667 17.066667 0 1 0 0-34.133333zM390.4 686.404267l-73.403733 58.7264-23.330134-23.330134a17.0496 17.0496 0 1 0-24.132266 24.132267l34.133333 34.133333a17.032533 17.032533 0 0 0 22.715733 1.262934l85.333334-68.266667a17.066667 17.066667 0 0 0-21.316267-26.658133z"  /></svg>