<?xml version="1.0" standalone="no"?><!DOCTYPE svg PUBLIC "-//W3C//DTD SVG 1.1//EN" "http://www.w3.org/Graphics/SVG/1.1/DTD/svg11.dtd"><svg class="icon" width="200px" height="200.00px" viewBox="0 0 1024 1024" version="1.1" xmlns="http://www.w3.org/2000/svg"><path fill="#1296db" d="M146.285714 749.714286l0 109.714286q0 7.428571-5.428571 12.857143t-12.857143 5.428571l-109.714286 0q-7.428571 0-12.857143-5.428571t-5.428571-12.857143l0-109.714286q0-7.428571 5.428571-12.857143t12.857143-5.428571l109.714286 0q7.428571 0 12.857143 5.428571t5.428571 12.857143zm0-219.428571l0 109.714286q0 7.428571-5.428571 12.857143t-12.857143 5.428571l-109.714286 0q-7.428571 0-12.857143-5.428571t-5.428571-12.857143l0-109.714286q0-7.428571 5.428571-12.857143t12.857143-5.428571l109.714286 0q7.428571 0 12.857143 5.428571t5.428571 12.857143zm0-219.428571l0 109.714286q0 7.428571-5.428571 12.857143t-12.857143 5.428571l-109.714286 0q-7.428571 0-12.857143-5.428571t-5.428571-12.857143l0-109.714286q0-7.428571 5.428571-12.857143t12.857143-5.428571l109.714286 0q7.428571 0 12.857143 5.428571t5.428571 12.857143zm877.714286 438.857143l0 109.714286q0 7.428571-5.428571 12.857143t-12.857143 5.428571l-768 0q-7.428571 0-12.857143-5.428571t-5.428571-12.857143l0-109.714286q0-7.428571 5.428571-12.857143t12.857143-5.428571l768 0q7.428571 0 12.857143 5.428571t5.428571 12.857143zm-877.714286-658.285714l0 109.714286q0 7.428571-5.428571 12.857143t-12.857143 5.428571l-109.714286 0q-7.428571 0-12.857143-5.428571t-5.428571-12.857143l0-109.714286q0-7.428571 5.428571-12.857143t12.857143-5.428571l109.714286 0q7.428571 0 12.857143 5.428571t5.428571 12.857143zm877.714286 438.857143l0 109.714286q0 7.428571-5.428571 12.857143t-12.857143 5.428571l-768 0q-7.428571 0-12.857143-5.428571t-5.428571-12.857143l0-109.714286q0-7.428571 5.428571-12.857143t12.857143-5.428571l768 0q7.428571 0 12.857143 5.428571t5.428571 12.857143zm0-219.428571l0 109.714286q0 7.428571-5.428571 12.857143t-12.857143 5.428571l-768 0q-7.428571 0-12.857143-5.428571t-5.428571-12.857143l0-109.714286q0-7.428571 5.428571-12.857143t12.857143-5.428571l768 0q7.428571 0 12.857143 5.428571t5.428571 12.857143zm0-219.428571l0 109.714286q0 7.428571-5.428571 12.857143t-12.857143 5.428571l-768 0q-7.428571 0-12.857143-5.428571t-5.428571-12.857143l0-109.714286q0-7.428571 5.428571-12.857143t12.857143-5.428571l768 0q7.428571 0 12.857143 5.428571t5.428571 12.857143z" /></svg>