<?xml version="1.0" standalone="no"?><!DOCTYPE svg PUBLIC "-//W3C//DTD SVG 1.1//EN" "http://www.w3.org/Graphics/SVG/1.1/DTD/svg11.dtd"><svg class="icon" width="200px" height="200.00px" viewBox="0 0 1024 1024" version="1.1" xmlns="http://www.w3.org/2000/svg"><path fill="#1296db" d="M938.666667 316.586667C934.826667 399.786667 876.8 513.706667 764.586667 658.773333 648.533333 810.666667 550.4 885.333333 469.333333 885.333333 420.266667 885.333333 378.026667 839.253333 343.466667 746.666667 320 663.04 298.666667 578.56 274.773333 494.08 249.173333 401.92 221.866667 355.84 192 355.84 186.026667 355.84 163.84 369.493333 125.44 396.373333L85.333333 344.32C128 307.2 168.96 270.08 209.92 232.96 266.24 184.32 308.48 158.72 336.213333 156.16 402.773333 149.333333 443.733333 195.413333 459.093333 292.693333 475.733333 398.08 487.253333 463.36 493.653333 488.96 512 576 533.333333 618.666667 556.8 618.666667 574.72 618.666667 601.6 591.36 637.44 534.613333 673.28 478.293333 692.48 435.2 695.04 405.333333 700.16 356.693333 680.96 332.373333 637.44 332.373333 616.96 332.373333 596.053333 337.066667 574.293333 346.453333 616.106667 208.64 696.32 141.653333 814.506667 145.493333 902.4 148.053333 943.786667 205.226667 938.666667 316.586667Z" /></svg>