<?xml version="1.0" standalone="no"?><!DOCTYPE svg PUBLIC "-//W3C//DTD SVG 1.1//EN" "http://www.w3.org/Graphics/SVG/1.1/DTD/svg11.dtd"><svg class="icon" width="200px" height="200.00px" viewBox="0 0 1024 1024" version="1.1" xmlns="http://www.w3.org/2000/svg"><path fill="#1296db" d="M57.10848 201.472c-18.8416 3.92192-36.3008 18.64704-43.17184 36.70016-3.92192 10.79296-3.92192 11.776-3.5328 277.08416l0.58368 266.2912L16.2816 791.552c2.93888 5.49888 9.4208 13.74208 14.32576 18.05312 17.664 15.50336-25.9072 14.1312 484.70016 13.74208l457.22624-0.58368 10.79296-6.08256c12.55424-7.0656 23.94112-21.00224 27.86304-33.9456 1.96608-7.26016 2.54976-58.28608 2.54976-271.98464 0-254.5152-0.19456-263.35232-3.72736-272.76288-4.90496-12.75904-18.44224-26.88-31.20128-32.57344l-10.19904-4.7104-452.32128-0.19456c-248.81152-0.21504-455.45472 0.18432-459.18208 0.96256z m641.30048 176.81408c10.00448 2.3552 18.8416 5.49888 19.23072 6.66624 0.78848 2.3552-5.888 46.51008-8.04864 54.35392-0.78848 2.54976-3.33824 2.16064-18.24768-2.93888-14.91968-5.09952-20.0192-5.888-39.63904-5.888-19.8144-0.19456-23.74656 0.38912-31.98976 4.51584-10.20928 4.90496-16.08704 13.53728-14.32576 20.79744 1.96608 7.85408 12.56448 15.89248 39.8336 29.63456 31.7952 16.08704 50.23744 31.5904 57.69216 48.27136 6.27712 14.32576 6.27712 38.656 0 55.1424-15.69792 40.02816-59.8528 62.59712-122.83904 62.59712-27.86304 0-45.33248-2.16064-67.11296-8.63232-11.58144-3.33824-14.32576-4.90496-14.32576-7.85408 0-4.32128 7.64928-51.99872 8.82688-56.12544 0.78848-1.76128 2.74432-1.56672 8.63232 1.56672 16.29184 8.2432 41.20576 13.93664 62.99648 14.32576 24.7296 0.19456 35.71712-2.54976 44.544-11.38688 5.09952-5.09952 6.47168-8.04864 6.47168-14.52032 0-10.79296-8.82688-19.03616-33.16736-30.81216-51.80416-25.11872-70.64576-47.28832-68.29056-80.65024 3.14368-42.38336 40.23296-74.17856 96.55296-83.00544 18.25792-2.73408 52.60288-0.96256 73.20576 3.9424z m-502.36416 3.72736c3.92192 2.16064 8.82688 6.27712 10.5984 9.4208 1.76128 3.14368 10.79296 42.1888 20.21376 86.92736 9.22624 44.73856 17.07008 81.43872 17.26464 81.63328 0.19456 0.19456 16.29184-40.42752 35.71712-90.07104l35.52256-90.66496 39.44448-0.58368 39.44448-0.38912-50.04288 116.1728c-27.47392 63.96928-53.57568 124.61056-57.89696 134.61504l-7.85408 18.05312-39.63904-0.38912-39.44448-0.58368-32.5632-116.76672-32.37888-116.56192-17.26464-8.2432c-9.61536-4.51584-26.88-11.18208-38.656-14.71488-34.53952-10.5984-31.00672-11.58144 44.34944-11.58144 61.02016 0 66.5088 0.19456 73.18528 3.72736z m300.63616-0.19456c0 3.14368-41.60512 249.02656-44.34944 261.77536l-1.1776 5.49888h-36.10624c-35.52256 0-36.10624 0-36.10624-4.12672 0-4.51584 42.58816-257.46432 44.34944-263.34208 0.98304-2.93888 4.51584-3.33824 37.28384-3.33824 33.15712 0 36.10624 0.19456 36.10624 3.5328z m412.09856-2.16064c0 0.98304 13.34272 61.61408 29.44 134.8096 16.29184 73.39008 29.44 133.632 29.44 134.03136 0 0.38912-15.3088 0.58368-34.14016 0.58368-31.00672 0-34.34496-0.38912-35.328-3.5328-0.38912-1.77152-2.54976-10.98752-4.31104-20.60288l-3.5328-17.07008H795.5456l-5.49888 15.11424c-2.93888 8.43776-6.67648 17.664-8.2432 20.60288l-2.74432 5.49888h-38.26688c-30.02368 0-38.26688-0.58368-37.4784-2.54976C708.608 633.3952 812.032 400.85504 815.16544 394.96704c2.93888-5.29408 7.26016-9.22624 13.14816-12.35968 8.04864-3.92192 11.18208-4.32128 44.544-4.32128 19.82464 0 35.92192 0.58368 35.92192 1.37216zM837.53984 499.5584c-9.4208 24.53504-17.664 46.51008-18.24768 48.86528l-1.1776 4.51584h59.65824l-0.78848-4.51584c-5.29408-26.88-20.40832-93.60384-21.1968-93.60384-0.58368-0.01024-8.82688 20.00896-18.24768 44.73856z" /></svg>